<svg xmlns="http://www.w3.org/2000/svg" viewBox="0 0 230 151"><defs><style>.cls-1{fill:#4c4b4a;}.cls-2{fill:#a9a29a;}.cls-3{fill:#898480;}.cls-4{fill:#efefef;}.cls-5{fill:#fff;}</style></defs><g id="Layer_5" data-name="Layer 5"><path class="cls-1" d="M161.94,55.71s1.35,6.48,0,8.37-22.15-8.37-22.15-8.37L156.54,49Z"/><path class="cls-2" d="M22.3,148.08c7.29.27,17.29.81,16.48-3s4.32-.81,4.32-3.78-7.56-6.22-8.38-15.67,7-33.76,7-33.76,35.11.27,50-4.05c0,0,11.5,4.62,0,57.53-1.11,5.14,14.26,7.77,22.42,3,1.7-1-.13-3.28,1.08-4.86.59-.78,8.33.59,8.91-2.16.53-2.48-5.67-7-5.67-7s13.24-53.2,12.43-58.61,6.21-10.8,4.86-13.5,2.43-2.7,2.43-2.7,11.34,1.08,13.77-1.08,5.41-1.35,14.59,1.08,20.8,6.75,17.28,32.41,18.37,40,18.37,40l5.94-1.35s-17-9.59-5.94-61.31c4.32-20.26-30-64.28-30-64.28s-9.48-4.75-22.15,0c-2.16.81-9.45-6.21-28.9-4s-37,11.34-47,11.07-15.94-5.13-30-.81S9.88,32.75,4.47,49.49-.12,110.27-.12,110.27l2.16.54L7.72,55.44s10.53,67.25,9.72,75.89a46.41,46.41,0,0,1-3.51,14.32Z"/><path class="cls-3" d="M123.58,4.93c5.14-1.89,24,14.31,24,14.31S149.78,46,153,54.9s-.54,10.53-5.94,8.37S106,47.33,103.87,44.36s-7.83-10-7.83-10,5.67-15.94,11.61-21.07S123.58,4.93,123.58,4.93Z"/><path class="cls-4" d="M213.21,80.64l-11.84-7.11L200.63,77c-14.78-6.15-14-14.9-16.28-16.41-3.24-2.16-9.45,0-9.45,0C198.4,97.84,230,82.72,230,82.72A131.17,131.17,0,0,1,213.21,80.64Zm1.66,1,0,0S214.89,81.64,214.87,81.64Z"/><path class="cls-4" d="M214.87,81.64l0,0S214.89,81.64,214.87,81.64Z"/><path class="cls-4" d="M214.87,81.64l0,0S214.89,81.64,214.87,81.64Z"/><path class="cls-1" d="M174.9,30.32c0,.74-1.81,1.35-4.05,1.35s-4-.61-4-1.35,1.81,0,4,0S174.9,29.57,174.9,30.32Z"/><circle class="cls-5" cx="170.72" cy="30.72" r="4.46"/><path class="cls-1" d="M170.72,35.75a5,5,0,1,1,5-5A5,5,0,0,1,170.72,35.75Zm0-8.92a3.89,3.89,0,1,0,3.89,3.89A3.9,3.9,0,0,0,170.72,26.83Z"/><circle class="cls-1" cx="170.72" cy="30.72" r="1.6"/></g></svg>